<?xml version="1.0" encoding="UTF-8" standalone="no"?> <svg width="64" height="64" viewBox="0 0 64 64" fill="none" xmlns="http://www.w3.org/2000/svg">
<path d="M54.5 8.09C54.15 5.16 52.5 3 50.5 3H9.1C6.8 3 5 5.76 5 9.28C5 12.8 6.8 15.57 9.1 15.57H50.47C52.58 15.57 54.26 13.25 54.53 10.16C55.2404 10.3671 55.8648 10.7984 56.31 11.3896C56.7552 11.9807 56.9972 12.7 57 13.44V16.56C57 17.4723 56.6376 18.3473 55.9924 18.9924C55.3473 19.6376 54.4723 20 53.56 20H37.56C36.7003 19.9974 35.8485 20.1643 35.0534 20.4911C34.2583 20.818 33.5354 21.2984 32.9261 21.9049C32.3168 22.5114 31.8331 23.2321 31.5026 24.0257C31.1721 24.8193 31.0013 25.6703 31 26.53V36H29C28.7348 36 28.4804 36.1054 28.2929 36.2929C28.1054 36.4804 28 36.7348 28 37V57C28 58.0609 28.4214 59.0783 29.1716 59.8284C29.9217 60.5786 30.9391 61 32 61C33.0609 61 34.0783 60.5786 34.8284 59.8284C35.5786 59.0783 36 58.0609 36 57V37C36 36.7348 35.8946 36.4804 35.7071 36.2929C35.5196 36.1054 35.2652 36 35 36H33V26.53C33 25.3286 33.4773 24.1763 34.3268 23.3268C35.1763 22.4773 36.3286 22 37.53 22H53.53C54.2465 22.0026 54.9566 21.8639 55.6195 21.5919C56.2823 21.3198 56.8851 20.9196 57.3931 20.4144C57.9012 19.9091 58.3046 19.3086 58.5804 18.6472C58.8561 17.9858 58.9987 17.2765 59 16.56V13.44C58.9981 12.1616 58.546 10.9248 57.7231 9.94647C56.9003 8.96816 55.7591 8.31089 54.5 8.09ZM9.1 5C10.1 5 11.21 6.83 11.21 9.28C11.21 11.73 10.1 13.57 9.1 13.57C8.1 13.57 7 11.73 7 9.28C7 6.83 8.11 5 9.1 5ZM50.47 13.57H12.12C12.8645 12.2648 13.2412 10.7822 13.21 9.28C13.2414 7.7809 12.8646 6.30147 12.12 5H50.47C51.47 5 52.57 6.83 52.57 9.28C52.57 11.73 51.46 13.57 50.47 13.57ZM34 57C34 57.5304 33.7893 58.0391 33.4142 58.4142C33.0391 58.7893 32.5304 59 32 59C31.4696 59 30.9609 58.7893 30.5858 58.4142C30.2107 58.0391 30 57.5304 30 57V38H34V57Z" fill="black"/>
</svg>
